<svg width="214" height="19" viewBox="0 0 214 19" fill="none" xmlns="http://www.w3.org/2000/svg">
<path d="M13.6617 5.26003H11.1617C10.7417 3.62003 9.68172 2.42003 7.60172 2.42003C4.54172 2.42003 3.26172 5.12003 3.26172 7.86003C3.26172 10.6 4.54172 13.3 7.60172 13.3C9.82172 13.3 11.0417 11.64 11.2417 9.56003H13.6817C13.4817 12.98 11.0617 15.34 7.60172 15.34C3.32172 15.34 0.761719 11.94 0.761719 7.86003C0.761718 3.78003 3.32172 0.380033 7.60172 0.380033C10.8217 0.400032 13.3617 2.18003 13.6617 5.26003ZM20.1753 13.48C22.2153 13.48 23.1153 11.62 23.1153 9.82003C23.1153 8.04003 22.2153 6.18003 20.1753 6.18003C18.1353 6.18003 17.2353 8.04003 17.2353 9.82003C17.2353 11.62 18.1353 13.48 20.1753 13.48ZM20.1753 15.28C16.8553 15.28 14.9553 13 14.9553 9.82003C14.9553 6.66003 16.8553 4.38003 20.1753 4.38003C23.4953 4.38003 25.3953 6.66003 25.3953 9.82003C25.3953 13 23.4953 15.28 20.1753 15.28ZM27.0908 15V4.66002H29.2508V6.18002L29.2908 6.22002C29.9708 5.08002 31.1508 4.38002 32.5108 4.38002C34.7508 4.38002 36.1708 5.58002 36.1708 7.90002V15H33.8908V8.50002C33.8508 6.88002 33.2108 6.18002 31.8708 6.18002C30.3508 6.18002 29.3708 7.38002 29.3708 8.90002V15H27.0908ZM37.3351 6.36002V4.66002H39.0551V1.56002H41.3351V4.66002H43.3951V6.36002H41.3351V11.88C41.3351 12.82 41.4151 13.3 42.4351 13.3C42.7551 13.3 43.0751 13.3 43.3951 13.22V14.98C42.8951 15.02 42.4151 15.1 41.9151 15.1C39.5351 15.1 39.0951 14.18 39.0551 12.46V6.36002H37.3351ZM54.2153 10.42H46.6153C46.6153 12.04 47.4953 13.48 49.3953 13.48C50.7153 13.48 51.5153 12.9 51.9153 11.76H54.0753C53.5753 14.02 51.6553 15.28 49.3953 15.28C46.1553 15.28 44.3353 13.02 44.3353 9.84002C44.3353 6.90002 46.2553 4.38002 49.3353 4.38002C52.5953 4.38002 54.5953 7.32002 54.2153 10.42ZM46.6153 8.92002H51.9353C51.8553 7.48002 50.8753 6.18002 49.3353 6.18002C47.7553 6.18002 46.6753 7.38002 46.6153 8.92002ZM55.7486 15V4.66002H57.9086V6.18002L57.9486 6.22002C58.6286 5.08002 59.8086 4.38002 61.1686 4.38002C63.4086 4.38002 64.8286 5.58002 64.8286 7.90002V15H62.5486V8.50002C62.5086 6.88002 61.8686 6.18002 60.5286 6.18002C59.0086 6.18002 58.0286 7.38002 58.0286 8.90002V15H55.7486ZM65.993 6.36002V4.66002H67.713V1.56002H69.993V4.66002H72.053V6.36002H69.993V11.88C69.993 12.82 70.073 13.3 71.093 13.3C71.413 13.3 71.733 13.3 72.053 13.22V14.98C71.553 15.02 71.073 15.1 70.573 15.1C68.193 15.1 67.753 14.18 67.713 12.46V6.36002H65.993ZM91.3195 5.26001H88.8195C88.3995 3.62001 87.3395 2.42001 85.2595 2.42001C82.1995 2.42002 80.9195 5.12002 80.9195 7.86002C80.9195 10.6 82.1995 13.3 85.2595 13.3C87.4795 13.3 88.6995 11.64 88.8995 9.56001H91.3395C91.1395 12.98 88.7195 15.34 85.2595 15.34C80.9795 15.34 78.4195 11.94 78.4195 7.86002C78.4195 3.78002 80.9795 0.38002 85.2595 0.380019C88.4795 0.400018 91.0195 2.18001 91.3195 5.26001ZM93.0931 15V4.66001H95.2331V6.66001H95.2731C95.5331 5.56001 96.8931 4.38001 98.2931 4.38001C98.8131 4.38001 98.9531 4.42001 99.1531 4.44001V6.64001C98.8331 6.60001 98.4931 6.54001 98.1731 6.54001C96.6131 6.54001 95.3731 7.80001 95.3731 10.08V15H93.0931ZM108.953 10.42H101.353C101.353 12.04 102.233 13.48 104.133 13.48C105.453 13.48 106.253 12.9 106.653 11.76H108.813C108.313 14.02 106.393 15.28 104.133 15.28C100.893 15.28 99.0728 13.02 99.0728 9.84001C99.0728 6.90001 100.993 4.38001 104.073 4.38001C107.333 4.38001 109.333 7.32001 108.953 10.42ZM101.353 8.92001H106.673C106.593 7.48001 105.613 6.18001 104.073 6.18001C102.493 6.18001 101.413 7.38001 101.353 8.92001ZM116.866 11.52V9.82001C116.166 10.28 115.066 10.26 114.066 10.44C113.086 10.6 112.206 10.96 112.206 12.16C112.206 13.18 113.506 13.48 114.306 13.48C115.306 13.48 116.866 12.96 116.866 11.52ZM119.146 7.38001V12.7C119.146 13.26 119.266 13.48 119.686 13.48C119.826 13.48 120.006 13.48 120.246 13.44V15.02C119.906 15.14 119.186 15.28 118.806 15.28C117.886 15.28 117.226 14.96 117.046 14.02C116.146 14.9 114.686 15.28 113.466 15.28C111.606 15.28 109.926 14.28 109.926 12.26C109.926 9.68001 111.986 9.26001 113.906 9.04001C115.546 8.74001 117.006 8.92001 117.006 7.58001C117.006 6.40001 115.786 6.18001 114.866 6.18001C113.586 6.18001 112.686 6.70001 112.586 7.82001H110.306C110.466 5.16001 112.726 4.38001 115.006 4.38001C117.026 4.38001 119.146 5.20001 119.146 7.38001ZM120.36 6.36001V4.66001H122.08V1.56001H124.36V4.66001H126.42V6.36001H124.36V11.88C124.36 12.82 124.44 13.3 125.46 13.3C125.78 13.3 126.1 13.3 126.42 13.22V14.98C125.92 15.02 125.44 15.1 124.94 15.1C122.56 15.1 122.12 14.18 122.08 12.46V6.36001H120.36ZM127.92 15V4.66001H130.2V15H127.92ZM127.92 2.88001V0.720011L130.2 0.72001V2.88001H127.92ZM135.224 15L131.464 4.66001H133.944L136.564 12.6H136.604L139.124 4.66001L141.484 4.66L137.784 15H135.224ZM152.035 10.42H144.435C144.435 12.04 145.315 13.48 147.215 13.48C148.535 13.48 149.335 12.9 149.735 11.76H151.895C151.395 14.02 149.475 15.28 147.215 15.28C143.975 15.28 142.155 13.02 142.155 9.84C142.155 6.9 144.075 4.38 147.155 4.38C150.415 4.38 152.415 7.32 152.035 10.42ZM144.435 8.92H149.755C149.675 7.48 148.695 6.18 147.155 6.18C145.575 6.18 144.495 7.38 144.435 8.92ZM171.715 7.48V15H170.115L169.735 13.32C168.395 14.84 167.175 15.34 165.435 15.34C161.155 15.34 158.595 11.94 158.595 7.86C158.595 3.78 161.155 0.380006 165.435 0.380005C168.555 0.380004 171.175 2.04 171.555 5.26H169.115C168.875 3.38 167.235 2.42 165.435 2.42C162.375 2.42 161.095 5.12 161.095 7.86C161.095 10.6 162.375 13.3 165.435 13.3C167.995 13.34 169.395 11.8 169.435 9.38H165.635V7.48H171.715ZM173.911 15V4.66H176.051V6.66H176.091C176.351 5.56 177.711 4.38 179.111 4.38C179.631 4.38 179.771 4.42 179.971 4.44V6.64C179.651 6.6 179.311 6.54 178.991 6.54C177.431 6.54 176.191 7.8 176.191 10.08V15H173.911ZM185.13 13.48C187.17 13.48 188.07 11.62 188.07 9.82C188.07 8.04 187.17 6.18 185.13 6.18C183.09 6.18 182.19 8.04 182.19 9.82C182.19 11.62 183.09 13.48 185.13 13.48ZM185.13 15.28C181.81 15.28 179.91 13 179.91 9.82C179.91 6.66 181.81 4.38 185.13 4.38C188.45 4.38 190.35 6.66 190.35 9.82C190.35 13 188.45 15.28 185.13 15.28ZM201.126 4.65999V15H198.886V13.56H198.846C198.286 14.6 197.046 15.28 195.906 15.28C193.206 15.28 192.046 13.92 192.046 11.22V4.66H194.326V11C194.326 12.82 195.066 13.48 196.306 13.48C198.206 13.48 198.846 12.26 198.846 10.66V4.65999H201.126ZM211.35 9.83999C211.35 7.95999 210.37 6.17999 208.49 6.17999C206.57 6.17999 205.59 7.63999 205.59 9.83999C205.59 11.92 206.65 13.48 208.49 13.48C210.57 13.48 211.35 11.64 211.35 9.83999ZM203.39 18.82V4.65999H205.55V6.05999H205.59C206.23 4.87999 207.47 4.37999 208.79 4.37999C212.05 4.37999 213.63 6.85999 213.63 9.87999C213.63 12.66 212.23 15.28 209.17 15.28C207.85 15.28 206.43 14.8 205.71 13.66H205.67V18.82H203.39Z" fill="white"/>
</svg>
