<svg width="409" height="61" viewBox="0 0 409 61" fill="none" xmlns="http://www.w3.org/2000/svg">
<path d="M0.839844 59V1.88002H10.8398V24.6H36.8398V1.88002H46.8398V59H36.8398V33.24H10.8398V59H0.839844ZM82.3342 0.52002C99.4538 0.52002 109.694 14.12 109.694 30.44C109.694 46.76 99.4538 60.36 82.3342 60.36C65.2142 60.36 54.9742 46.76 54.9742 30.44C54.9742 14.12 65.2142 0.52002 82.3342 0.52002ZM82.3342 8.68002C70.0942 8.68002 64.9742 19.48 64.9742 30.44C64.9742 41.4 70.0942 52.2 82.3342 52.2C94.5742 52.2 99.6938 41.4 99.6938 30.44C99.6938 19.48 94.5742 8.68002 82.3342 8.68002ZM117.356 38.44V1.88002H127.356V35.16C127.356 42.84 127.836 51.72 140.796 51.72C153.756 51.72 154.236 42.84 154.236 35.16V1.88002H164.236V38.44C164.236 53.08 154.876 60.36 140.796 60.36C126.716 60.36 117.356 53.08 117.356 38.44ZM171.49 39.96H181.49C181.49 48.76 187.97 52.2 195.97 52.2C204.77 52.2 208.05 47.88 208.05 43.56C208.05 39.16 205.65 37.4 203.33 36.52C199.33 35 194.13 33.96 186.29 31.8C176.53 29.16 173.65 23.24 173.65 17.32C173.65 5.88002 184.21 0.52002 194.53 0.52002C206.45 0.52002 216.45 6.84002 216.45 18.76H206.45C205.97 11.4 201.01 8.68002 194.13 8.68002C189.49 8.68002 183.65 10.36 183.65 16.12C183.65 20.12 186.37 22.36 190.45 23.48C191.33 23.72 203.97 27 206.93 27.88C214.45 30.12 218.05 36.52 218.05 42.44C218.05 55.24 206.69 60.36 195.33 60.36C182.29 60.36 171.73 54.12 171.49 39.96ZM226.005 59V1.88002H267.125V10.52H236.005V25.48H264.805V33.64H236.005V50.36H267.685V59H226.005Z" fill="white"/>
<path d="M333.399 0.52002C350.519 0.52002 360.759 14.12 360.759 30.44C360.759 46.76 350.519 60.36 333.399 60.36C316.279 60.36 306.039 46.76 306.039 30.44C306.039 14.12 316.279 0.52002 333.399 0.52002ZM333.399 8.68002C321.159 8.68002 316.039 19.48 316.039 30.44C316.039 41.4 321.159 52.2 333.399 52.2C345.639 52.2 350.759 41.4 350.759 30.44C350.759 19.48 345.639 8.68002 333.399 8.68002ZM369.06 59V1.88002H408.5V10.52H379.06V25.48H404.9V33.64H379.06V59H369.06Z" fill="white"/>
</svg>
