<svg width="807" height="61" viewBox="0 0 807 61" fill="none" xmlns="http://www.w3.org/2000/svg">
<path d="M0.078125 59V1.88002H10.0781V50.36H39.1181V59H0.078125ZM44.5756 38.44V1.88002H54.5756V35.16C54.5756 42.84 55.0556 51.72 68.0156 51.72C80.9756 51.72 81.4556 42.84 81.4556 35.16V1.88002H91.4556V38.44C91.4556 53.08 82.0956 60.36 68.0156 60.36C53.9356 60.36 44.5756 53.08 44.5756 38.44ZM116.07 29.4L97.19 1.88002H109.11L122.07 22.04L135.59 1.88002H146.79L127.91 29.4L148.15 59H135.99L121.75 37.16L107.27 59H95.83L116.07 29.4ZM152.585 38.44V1.88002H162.585V35.16C162.585 42.84 163.065 51.72 176.025 51.72C188.985 51.72 189.465 42.84 189.465 35.16V1.88002H199.465V38.44C199.465 53.08 190.105 60.36 176.025 60.36C161.945 60.36 152.585 53.08 152.585 38.44ZM220.159 10.04V27.88H236.559C242.879 27.88 246.319 24.76 246.319 18.76C246.319 11.48 241.599 10.04 236.399 10.04H220.159ZM210.159 59V1.88002H237.439C249.919 1.88002 256.319 7.64002 256.319 17.32C256.319 28.28 248.719 31.08 246.879 31.72V31.88C250.319 32.36 255.359 34.92 255.359 43.96C255.359 50.6 256.319 56.68 258.479 59H247.759C246.239 56.52 246.239 53.4 246.239 50.6C246.239 40.12 244.079 35.48 234.879 35.48H220.159V59H210.159ZM277.599 59V36.6L256.159 1.88002H267.759L282.879 27.48L297.759 1.88002H308.959L287.599 36.6V59H277.599ZM353.339 7.32002C349.979 7.32002 347.259 9.80002 347.259 13.64C347.259 17.4 350.379 20.28 352.459 23.16C355.899 20.84 359.179 18.44 359.179 13.88C359.179 10.12 356.859 7.32002 353.339 7.32002ZM360.859 46.52L349.659 32.6C346.299 34.68 340.859 36.52 340.859 43.32C340.859 49.48 344.779 52.92 350.059 52.92C356.699 52.92 359.099 48.84 360.859 46.52ZM370.939 59L365.739 52.6C361.499 57.8 356.379 60.12 349.739 60.12C339.259 60.12 331.739 53.88 331.739 43.16C331.739 35.08 338.299 29.96 344.859 26.6C341.899 22.84 339.099 19.08 339.099 14.12C339.099 5.88002 345.339 0.52002 353.099 0.52002C360.459 0.52002 367.339 5.08002 367.339 14.2C367.339 20.92 362.539 25.72 357.019 28.68L365.899 39.4C366.539 37.64 367.259 35.4 367.659 31.72H375.659C375.099 36.68 373.739 41.72 371.179 45.72L382.139 59H370.939ZM407.8 59V1.88002H417.8V50.36H446.84V59H407.8ZM452.937 59V1.88002H462.937V59H452.937ZM474.403 59V1.88002H513.843V10.52H484.403V25.48H510.243V33.64H484.403V59H474.403ZM521.025 59V1.88002H562.145V10.52H531.025V25.48H559.825V33.64H531.025V50.36H562.705V59H521.025ZM567.175 39.96H577.175C577.175 48.76 583.655 52.2 591.655 52.2C600.455 52.2 603.735 47.88 603.735 43.56C603.735 39.16 601.335 37.4 599.015 36.52C595.015 35 589.815 33.96 581.975 31.8C572.215 29.16 569.335 23.24 569.335 17.32C569.335 5.88002 579.895 0.52002 590.215 0.52002C602.135 0.52002 612.135 6.84002 612.135 18.76H602.135C601.655 11.4 596.695 8.68002 589.815 8.68002C585.175 8.68002 579.335 10.36 579.335 16.12C579.335 20.12 582.055 22.36 586.135 23.48C587.015 23.72 599.655 27 602.615 27.88C610.135 30.12 613.735 36.52 613.735 42.44C613.735 55.24 602.375 60.36 591.015 60.36C577.975 60.36 567.415 54.12 567.175 39.96ZM616.25 10.52V1.88002H662.49V10.52H644.33V59H634.33V10.52H616.25ZM683.192 59V36.6L661.752 1.88002H673.352L688.472 27.48L703.352 1.88002H714.552L693.192 36.6V59H683.192ZM719.387 59V1.88002H729.387V50.36H758.427V59H719.387ZM764.525 59V1.88002H805.645V10.52H774.525V25.48H803.325V33.64H774.525V50.36H806.205V59H764.525Z" fill="white"/>
</svg>
